<mxfile host="app.diagrams.net" modified="2022-09-15T07:17:15.436Z" agent="5.0 (Macintosh; Intel Mac OS X 10_15_7) AppleWebKit/537.36 (KHTML, like Gecko) Chrome/104.0.0.0 Safari/537.36" etag="vh1v64Eg_nIuFqeCmp5b" version="20.2.3" type="github">
  <diagram name="Page-1" id="13e1069c-82ec-6db2-03f1-153e76fe0fe0">
    <mxGraphModel dx="1358" dy="732" grid="1" gridSize="10" guides="1" tooltips="1" connect="1" arrows="1" fold="1" page="1" pageScale="1" pageWidth="1100" pageHeight="850" background="none" math="0" shadow="0">
      <root>
        <mxCell id="0" />
        <mxCell id="1" parent="0" />
        <mxCell id="7baba1c4bc27f4b0-2" value="platform" style="shape=umlLifeline;perimeter=lifelinePerimeter;whiteSpace=wrap;html=1;container=1;collapsible=0;recursiveResize=0;outlineConnect=0;rounded=1;shadow=0;comic=0;labelBackgroundColor=none;strokeWidth=1;fontFamily=Verdana;fontSize=12;align=center;" parent="1" vertex="1">
          <mxGeometry x="440" y="80" width="100" height="760" as="geometry" />
        </mxCell>
        <mxCell id="7baba1c4bc27f4b0-10" value="" style="html=1;points=[];perimeter=orthogonalPerimeter;rounded=0;shadow=0;comic=0;labelBackgroundColor=none;strokeWidth=1;fontFamily=Verdana;fontSize=12;align=center;" parent="7baba1c4bc27f4b0-2" vertex="1">
          <mxGeometry x="45" y="80" width="10" height="120" as="geometry" />
        </mxCell>
        <mxCell id="4vnRMAmTlPhXKyiyfIHD-10" value="" style="html=1;points=[];perimeter=orthogonalPerimeter;rounded=0;shadow=0;comic=0;labelBackgroundColor=none;strokeWidth=1;fontFamily=Verdana;fontSize=12;align=center;" vertex="1" parent="7baba1c4bc27f4b0-2">
          <mxGeometry x="45" y="225" width="10" height="120" as="geometry" />
        </mxCell>
        <mxCell id="4vnRMAmTlPhXKyiyfIHD-15" value="" style="html=1;points=[];perimeter=orthogonalPerimeter;rounded=0;shadow=0;comic=0;labelBackgroundColor=none;strokeWidth=1;fontFamily=Verdana;fontSize=12;align=center;" vertex="1" parent="7baba1c4bc27f4b0-2">
          <mxGeometry x="45" y="400" width="10" height="120" as="geometry" />
        </mxCell>
        <mxCell id="7baba1c4bc27f4b0-3" value="plugin" style="shape=umlLifeline;perimeter=lifelinePerimeter;whiteSpace=wrap;html=1;container=1;collapsible=0;recursiveResize=0;outlineConnect=0;rounded=1;shadow=0;comic=0;labelBackgroundColor=none;strokeWidth=1;fontFamily=Verdana;fontSize=12;align=center;" parent="1" vertex="1">
          <mxGeometry x="800" y="80" width="100" height="760" as="geometry" />
        </mxCell>
        <mxCell id="7baba1c4bc27f4b0-13" value="" style="html=1;points=[];perimeter=orthogonalPerimeter;rounded=0;shadow=0;comic=0;labelBackgroundColor=none;strokeWidth=1;fontFamily=Verdana;fontSize=12;align=center;" parent="7baba1c4bc27f4b0-3" vertex="1">
          <mxGeometry x="45" y="80" width="10" height="120" as="geometry" />
        </mxCell>
        <mxCell id="4vnRMAmTlPhXKyiyfIHD-11" value="" style="html=1;points=[];perimeter=orthogonalPerimeter;rounded=0;shadow=0;comic=0;labelBackgroundColor=none;strokeWidth=1;fontFamily=Verdana;fontSize=12;align=center;" vertex="1" parent="7baba1c4bc27f4b0-3">
          <mxGeometry x="45" y="225" width="10" height="120" as="geometry" />
        </mxCell>
        <mxCell id="4vnRMAmTlPhXKyiyfIHD-14" value="" style="html=1;points=[];perimeter=orthogonalPerimeter;rounded=0;shadow=0;comic=0;labelBackgroundColor=none;strokeWidth=1;fontFamily=Verdana;fontSize=12;align=center;" vertex="1" parent="7baba1c4bc27f4b0-3">
          <mxGeometry x="45" y="400" width="10" height="120" as="geometry" />
        </mxCell>
        <mxCell id="7baba1c4bc27f4b0-8" value="bang-api" style="shape=umlLifeline;perimeter=lifelinePerimeter;whiteSpace=wrap;html=1;container=1;collapsible=0;recursiveResize=0;outlineConnect=0;rounded=1;shadow=0;comic=0;labelBackgroundColor=none;strokeWidth=1;fontFamily=Verdana;fontSize=12;align=center;" parent="1" vertex="1">
          <mxGeometry x="100" y="80" width="100" height="750" as="geometry" />
        </mxCell>
        <mxCell id="7baba1c4bc27f4b0-9" value="" style="html=1;points=[];perimeter=orthogonalPerimeter;rounded=0;shadow=0;comic=0;labelBackgroundColor=none;strokeWidth=1;fontFamily=Verdana;fontSize=12;align=center;" parent="7baba1c4bc27f4b0-8" vertex="1">
          <mxGeometry x="45" y="418" width="10" height="103" as="geometry" />
        </mxCell>
        <mxCell id="4vnRMAmTlPhXKyiyfIHD-32" value="" style="html=1;points=[];perimeter=orthogonalPerimeter;rounded=0;shadow=0;comic=0;labelBackgroundColor=none;strokeWidth=1;fontFamily=Verdana;fontSize=12;align=center;" vertex="1" parent="7baba1c4bc27f4b0-8">
          <mxGeometry x="55" y="460" width="10" height="200" as="geometry" />
        </mxCell>
        <mxCell id="4vnRMAmTlPhXKyiyfIHD-40" value="" style="endArrow=classic;html=1;rounded=0;exitX=1.129;exitY=0.211;exitDx=0;exitDy=0;exitPerimeter=0;" edge="1" parent="7baba1c4bc27f4b0-8" source="4vnRMAmTlPhXKyiyfIHD-32" target="4vnRMAmTlPhXKyiyfIHD-32">
          <mxGeometry width="50" height="50" relative="1" as="geometry">
            <mxPoint x="100" y="560" as="sourcePoint" />
            <mxPoint x="140" y="502" as="targetPoint" />
            <Array as="points">
              <mxPoint x="85" y="502" />
            </Array>
          </mxGeometry>
        </mxCell>
        <mxCell id="4vnRMAmTlPhXKyiyfIHD-44" value="处理导入" style="edgeLabel;html=1;align=center;verticalAlign=middle;resizable=0;points=[];" vertex="1" connectable="0" parent="4vnRMAmTlPhXKyiyfIHD-40">
          <mxGeometry x="-0.1344" relative="1" as="geometry">
            <mxPoint x="-1" y="-1" as="offset" />
          </mxGeometry>
        </mxCell>
        <mxCell id="4vnRMAmTlPhXKyiyfIHD-2" value="" style="endArrow=classic;html=1;rounded=0;entryX=1;entryY=0.15;entryDx=0;entryDy=0;entryPerimeter=0;exitX=0;exitY=0.158;exitDx=0;exitDy=0;exitPerimeter=0;" edge="1" parent="1" source="7baba1c4bc27f4b0-13" target="7baba1c4bc27f4b0-10">
          <mxGeometry width="50" height="50" relative="1" as="geometry">
            <mxPoint x="740" y="220" as="sourcePoint" />
            <mxPoint x="630" y="360" as="targetPoint" />
          </mxGeometry>
        </mxCell>
        <mxCell id="4vnRMAmTlPhXKyiyfIHD-47" value="创建导入任务" style="edgeLabel;html=1;align=center;verticalAlign=middle;resizable=0;points=[];" vertex="1" connectable="0" parent="4vnRMAmTlPhXKyiyfIHD-2">
          <mxGeometry x="-0.0304" y="-3" relative="1" as="geometry">
            <mxPoint as="offset" />
          </mxGeometry>
        </mxCell>
        <mxCell id="4vnRMAmTlPhXKyiyfIHD-4" value="" style="endArrow=classic;html=1;rounded=0;exitX=1.4;exitY=0.883;exitDx=0;exitDy=0;exitPerimeter=0;entryX=0;entryY=0.875;entryDx=0;entryDy=0;entryPerimeter=0;dashed=1;" edge="1" parent="1" source="7baba1c4bc27f4b0-10" target="7baba1c4bc27f4b0-13">
          <mxGeometry width="50" height="50" relative="1" as="geometry">
            <mxPoint x="580" y="410" as="sourcePoint" />
            <mxPoint x="630" y="360" as="targetPoint" />
          </mxGeometry>
        </mxCell>
        <mxCell id="4vnRMAmTlPhXKyiyfIHD-12" value="" style="endArrow=classic;html=1;rounded=0;entryX=1;entryY=0.15;entryDx=0;entryDy=0;entryPerimeter=0;exitX=0;exitY=0.158;exitDx=0;exitDy=0;exitPerimeter=0;" edge="1" parent="1" source="4vnRMAmTlPhXKyiyfIHD-11" target="4vnRMAmTlPhXKyiyfIHD-10">
          <mxGeometry width="50" height="50" relative="1" as="geometry">
            <mxPoint x="741" y="365" as="sourcePoint" />
            <mxPoint x="631" y="505" as="targetPoint" />
          </mxGeometry>
        </mxCell>
        <mxCell id="4vnRMAmTlPhXKyiyfIHD-48" value="append数据" style="edgeLabel;html=1;align=center;verticalAlign=middle;resizable=0;points=[];" vertex="1" connectable="0" parent="4vnRMAmTlPhXKyiyfIHD-12">
          <mxGeometry x="0.0076" relative="1" as="geometry">
            <mxPoint as="offset" />
          </mxGeometry>
        </mxCell>
        <mxCell id="4vnRMAmTlPhXKyiyfIHD-13" value="" style="endArrow=classic;html=1;rounded=0;exitX=1.4;exitY=0.883;exitDx=0;exitDy=0;exitPerimeter=0;entryX=0;entryY=0.875;entryDx=0;entryDy=0;entryPerimeter=0;dashed=1;" edge="1" parent="1" source="4vnRMAmTlPhXKyiyfIHD-10" target="4vnRMAmTlPhXKyiyfIHD-11">
          <mxGeometry width="50" height="50" relative="1" as="geometry">
            <mxPoint x="581" y="555" as="sourcePoint" />
            <mxPoint x="631" y="505" as="targetPoint" />
          </mxGeometry>
        </mxCell>
        <mxCell id="4vnRMAmTlPhXKyiyfIHD-16" value="" style="endArrow=classic;html=1;rounded=0;exitX=-0.363;exitY=0.102;exitDx=0;exitDy=0;exitPerimeter=0;entryX=0.954;entryY=0.112;entryDx=0;entryDy=0;entryPerimeter=0;" edge="1" parent="1" source="4vnRMAmTlPhXKyiyfIHD-14" target="4vnRMAmTlPhXKyiyfIHD-15">
          <mxGeometry width="50" height="50" relative="1" as="geometry">
            <mxPoint x="450" y="570" as="sourcePoint" />
            <mxPoint x="500" y="490" as="targetPoint" />
          </mxGeometry>
        </mxCell>
        <mxCell id="4vnRMAmTlPhXKyiyfIHD-49" value="提交导入任务" style="edgeLabel;html=1;align=center;verticalAlign=middle;resizable=0;points=[];" vertex="1" connectable="0" parent="4vnRMAmTlPhXKyiyfIHD-16">
          <mxGeometry x="0.0234" relative="1" as="geometry">
            <mxPoint as="offset" />
          </mxGeometry>
        </mxCell>
        <mxCell id="4vnRMAmTlPhXKyiyfIHD-17" value="" style="endArrow=classic;html=1;rounded=0;exitX=-0.102;exitY=0.257;exitDx=0;exitDy=0;exitPerimeter=0;entryX=0.894;entryY=0.141;entryDx=0;entryDy=0;entryPerimeter=0;" edge="1" parent="1" source="4vnRMAmTlPhXKyiyfIHD-15" target="7baba1c4bc27f4b0-9">
          <mxGeometry width="50" height="50" relative="1" as="geometry">
            <mxPoint x="400" y="560" as="sourcePoint" />
            <mxPoint x="210" y="540" as="targetPoint" />
          </mxGeometry>
        </mxCell>
        <mxCell id="4vnRMAmTlPhXKyiyfIHD-18" value="" style="endArrow=classic;html=1;rounded=0;dashed=1;exitX=1.071;exitY=0.547;exitDx=0;exitDy=0;exitPerimeter=0;entryX=0.012;entryY=0.611;entryDx=0;entryDy=0;entryPerimeter=0;" edge="1" parent="1" source="7baba1c4bc27f4b0-9" target="4vnRMAmTlPhXKyiyfIHD-15">
          <mxGeometry width="50" height="50" relative="1" as="geometry">
            <mxPoint x="160" y="550" as="sourcePoint" />
            <mxPoint x="480" y="553" as="targetPoint" />
          </mxGeometry>
        </mxCell>
        <mxCell id="4vnRMAmTlPhXKyiyfIHD-19" value="" style="endArrow=classic;html=1;rounded=0;dashed=1;exitX=1.153;exitY=0.846;exitDx=0;exitDy=0;exitPerimeter=0;entryX=-0.056;entryY=0.85;entryDx=0;entryDy=0;entryPerimeter=0;" edge="1" parent="1" source="4vnRMAmTlPhXKyiyfIHD-15" target="4vnRMAmTlPhXKyiyfIHD-14">
          <mxGeometry width="50" height="50" relative="1" as="geometry">
            <mxPoint x="459.9999999999999" y="640" as="sourcePoint" />
            <mxPoint x="790.2300000000001" y="640.54" as="targetPoint" />
          </mxGeometry>
        </mxCell>
        <mxCell id="4vnRMAmTlPhXKyiyfIHD-21" value="Actor" style="shape=umlActor;verticalLabelPosition=bottom;verticalAlign=top;html=1;outlineConnect=0;" vertex="1" parent="1">
          <mxGeometry x="934" y="180" width="30" height="60" as="geometry" />
        </mxCell>
        <mxCell id="4vnRMAmTlPhXKyiyfIHD-24" value="Actor" style="shape=umlActor;verticalLabelPosition=bottom;verticalAlign=top;html=1;outlineConnect=0;" vertex="1" parent="1">
          <mxGeometry x="934" y="320" width="30" height="60" as="geometry" />
        </mxCell>
        <mxCell id="4vnRMAmTlPhXKyiyfIHD-25" value="Actor" style="shape=umlActor;verticalLabelPosition=bottom;verticalAlign=top;html=1;outlineConnect=0;" vertex="1" parent="1">
          <mxGeometry x="934" y="490" width="30" height="60" as="geometry" />
        </mxCell>
      </root>
    </mxGraphModel>
  </diagram>
</mxfile>
